<?xml version="1.0" encoding="utf-8"?>
<!-- Generator: Adobe Illustrator 28.0.0, SVG Export Plug-In . SVG Version: 6.00 Build 0)  -->
<svg version="1.1" id="Calque_1" xmlns="http://www.w3.org/2000/svg" xmlns:xlink="http://www.w3.org/1999/xlink" x="0px" y="0px"
	 viewBox="0 0 189 48.7" style="enable-background:new 0 0 189 48.7;" xml:space="preserve">
<style type="text/css">
	.st0{display:none;}
	.st1{display:inline;fill:#15EDA3;}
	.st2{display:inline;fill:#15EDA3;stroke:#15EDA3;stroke-width:1.6931;stroke-miterlimit:5.6437;}
	.st3{display:inline;fill:none;stroke:#15EDA3;stroke-width:1.6931;stroke-miterlimit:5.6437;}
	.st4{display:inline;}
	.st5{fill:none;}
	.st6{fill:#15EDA3;}
	.st7{fill:none;stroke:#15EDA3;stroke-width:0.5644;stroke-miterlimit:5.6437;}
	.st8{display:inline;fill:none;stroke:#15EDA3;stroke-width:1.6931;stroke-linecap:round;stroke-miterlimit:5.6437;}
	.st9{display:inline;fill:none;stroke:#15EDA3;stroke-width:3.9506;stroke-linecap:round;stroke-miterlimit:5.6437;}
	.st10{display:inline;fill:none;stroke:#15EDA3;stroke-width:0.5644;stroke-miterlimit:5.6437;}
</style>
<g id="SvgjsG1746" transform="matrix(1.104845404624939,0,0,1.104845404624939,-5.242172150110015,-7.695867045974001)">
	<g class="st0">
		<circle class="st1" cx="25.6" cy="23.3" r="15"/>
		<ellipse class="st2" cx="25.9" cy="23.3" rx="10.2" ry="16"/>
		<ellipse class="st2" cx="26" cy="23.3" rx="24.2" ry="8.9"/>
		<line class="st3" x1="26.1" y1="4.5" x2="26.1" y2="46.1"/>
		<line class="st3" x1="48.1" y1="23.2" x2="6.6" y2="23.2"/>
	</g>
	<g class="st0">
		<g class="st4">
			<g>
				<path class="st5" d="M24.8,7c-0.4,0-0.7,0.1-1,0.2c0.3,0,0.7-0.1,1-0.1V7z"/>
				<path class="st5" d="M23.8,39.4c0.3,0.1,0.7,0.2,1,0.2v-0.1C24.4,39.5,24.1,39.4,23.8,39.4z"/>
				<path class="st5" d="M26.4,39.6c0.4,0,0.7-0.1,1-0.2c-0.3,0-0.7,0.1-1,0.1V39.6z"/>
				<path class="st5" d="M27.5,7.3c-0.3-0.1-0.7-0.2-1-0.2v0.1C26.8,7.2,27.1,7.2,27.5,7.3z"/>
				<path class="st6" d="M25.6,7.2c0.3,0,0.6,0,0.8,0V7C26.2,7,25.9,7,25.6,7c-0.3,0-0.6,0-0.8,0.1v0.1C25.1,7.2,25.3,7.2,25.6,7.2z
					"/>
				<path class="st6" d="M25.6,39.5c-0.3,0-0.6,0-0.8,0v0.1c0.3,0,0.5,0.1,0.8,0.1c0.3,0,0.6,0,0.8-0.1v-0.1
					C26.2,39.5,25.9,39.5,25.6,39.5z"/>
				<path class="st6" d="M35.7,22.5h1.6c-0.1-2.5-0.5-5-1.2-7.1c-0.6-0.1-1.2-0.2-1.8-0.3C35.2,17.3,35.6,19.8,35.7,22.5z"/>
				<path class="st6" d="M15.5,22.5c0.1-2.7,0.6-5.2,1.4-7.4c-0.6,0.1-1.2,0.2-1.8,0.3c-0.7,2.2-1.1,4.6-1.2,7.1L15.5,22.5
					L15.5,22.5z"/>
				<path class="st6" d="M17.6,33.3c-0.6-0.1-1.3-0.2-1.9-0.3c0.8,1.9,1.9,3.6,3.1,5c1.5,0.7,3.2,1.2,4.9,1.4
					C21.3,38.6,19.1,36.4,17.6,33.3z"/>
				<path class="st6" d="M33.6,13.4c0.6,0.1,1.3,0.2,1.9,0.3c-0.8-1.9-1.9-3.6-3.1-5c-1.5-0.7-3.2-1.2-4.9-1.4
					C30,8,32.2,10.3,33.6,13.4z"/>
				<path class="st6" d="M35.7,24.2c-0.1,2.7-0.6,5.2-1.4,7.4c0.6-0.1,1.2-0.2,1.8-0.3c0.7-2.2,1.1-4.6,1.2-7.1L35.7,24.2L35.7,24.2
					z"/>
				<path class="st6" d="M33.6,33.3c-1.5,3.1-3.7,5.4-6.1,6.1c1.7-0.2,3.4-0.7,4.9-1.4c1.2-1.3,2.3-3,3.1-5
					C34.9,33.1,34.3,33.2,33.6,33.3z"/>
				<path class="st6" d="M17.6,13.4c1.5-3.1,3.7-5.4,6.1-6.1C22,7.5,20.4,8,18.8,8.7c-1.2,1.3-2.3,3-3.1,5
					C16.3,13.5,17,13.5,17.6,13.4z"/>
				<path class="st6" d="M15.5,24.2h-1.6c0.1,2.5,0.5,4.9,1.2,7.1c0.6,0.1,1.2,0.2,1.8,0.3C16.1,29.3,15.6,26.8,15.5,24.2z"/>
				<path class="st6" d="M36.2,15.4c1.4,0.2,2.7,0.5,4,0.8c-0.3-0.7-0.7-1.3-1.1-1.9c-1.1-0.2-2.3-0.5-3.5-0.6
					C35.8,14.2,36,14.8,36.2,15.4z"/>
				<path class="st6" d="M15.1,31.3c-1.4-0.2-2.7-0.5-4-0.8c0.3,0.7,0.7,1.3,1.1,1.9c1.1,0.2,2.3,0.5,3.5,0.6
					C15.5,32.5,15.3,31.9,15.1,31.3z"/>
				<path class="st6" d="M36.2,31.3c-0.2,0.6-0.4,1.2-0.7,1.8c1.2-0.2,2.4-0.4,3.5-0.6c0.4-0.6,0.8-1.3,1.1-1.9
					C38.9,30.8,37.6,31,36.2,31.3z"/>
				<path class="st6" d="M26.4,14.6c2.8,0,5.5,0.2,7.9,0.5c-0.2-0.6-0.5-1.2-0.7-1.7c-2.3-0.3-4.7-0.4-7.2-0.4
					C26.4,12.9,26.4,14.6,26.4,14.6z"/>
				<path class="st6" d="M24.8,32.1c-2.8,0-5.5-0.2-7.9-0.5c0.2,0.6,0.5,1.2,0.7,1.7c2.3,0.3,4.7,0.4,7.2,0.4V32.1z"/>
				<path class="st6" d="M24.8,14.6v-1.6c-2.5,0-4.9,0.2-7.2,0.4c-0.3,0.6-0.5,1.1-0.7,1.7C19.3,14.8,22,14.6,24.8,14.6z"/>
				<path class="st6" d="M26.4,32.1v1.6c2.5,0,4.9-0.2,7.2-0.4c0.3-0.6,0.5-1.1,0.7-1.7C31.9,31.8,29.3,32,26.4,32.1z"/>
				<path class="st6" d="M15.1,15.4c0.2-0.6,0.4-1.2,0.7-1.8c-1.2,0.2-2.4,0.4-3.5,0.6c-0.4,0.6-0.8,1.3-1.1,1.9
					C12.3,15.9,13.7,15.6,15.1,15.4z"/>
				<path class="st6" d="M15.1,31.3c0.2,0.6,0.4,1.2,0.7,1.8c0.6,0.1,1.2,0.2,1.9,0.3c-0.3-0.6-0.5-1.1-0.7-1.7
					C16.3,31.5,15.7,31.4,15.1,31.3z"/>
				<path class="st6" d="M17.6,13.4c-0.6,0.1-1.3,0.2-1.9,0.3c-0.2,0.6-0.5,1.2-0.7,1.8c0.6-0.1,1.2-0.2,1.8-0.3
					C17.1,14.5,17.3,13.9,17.6,13.4z"/>
				<path class="st6" d="M36.2,15.4c-0.2-0.6-0.4-1.2-0.7-1.8c-0.6-0.1-1.2-0.2-1.9-0.3c0.3,0.6,0.5,1.1,0.7,1.7
					C35,15.2,35.6,15.3,36.2,15.4z"/>
				<path class="st6" d="M33.6,33.3c0.6-0.1,1.3-0.2,1.9-0.3c0.2-0.6,0.5-1.1,0.7-1.8c-0.6,0.1-1.2,0.2-1.8,0.3
					C34.1,32.1,33.9,32.7,33.6,33.3z"/>
				<path class="st6" d="M26.4,22.5v-7.9c-0.3,0-0.5,0-0.8,0c-0.3,0-0.6,0-0.8,0v7.9H26.4z"/>
				<path class="st6" d="M26.4,12.9V7.2c-0.3,0-0.5,0-0.8,0c-0.3,0-0.6,0-0.8,0v5.8c0.3,0,0.5,0,0.8,0
					C25.9,12.9,26.2,12.9,26.4,12.9z"/>
				<path class="st6" d="M24.8,33.7v5.8c0.3,0,0.5,0,0.8,0c0.3,0,0.6,0,0.8,0v-5.8c-0.3,0-0.5,0-0.8,0
					C25.3,33.7,25.1,33.7,24.8,33.7z"/>
				<path class="st6" d="M24.8,24.2v7.9c0.3,0,0.5,0,0.8,0c0.3,0,0.6,0,0.8,0v-7.9H24.8z"/>
				<path class="st6" d="M26.4,14.6v-1.6c-0.3,0-0.5,0-0.8,0s-0.5,0-0.8,0v1.6c0.3,0,0.5,0,0.8,0C25.9,14.6,26.2,14.6,26.4,14.6z"/>
				<path class="st6" d="M24.8,32.1v1.6c0.3,0,0.5,0,0.8,0c0.3,0,0.6,0,0.8,0v-1.6c-0.3,0-0.5,0-0.8,0
					C25.3,32.1,25.1,32.1,24.8,32.1z"/>
				<path class="st6" d="M24.8,22.5h-9.3c0,0.3,0,0.5,0,0.8c0,0.3,0,0.6,0,0.8h9.3V22.5z"/>
				<path class="st6" d="M35.7,22.5h-9.3v1.6h9.3c0-0.3,0-0.5,0-0.8C35.7,23.1,35.7,22.8,35.7,22.5z"/>
				<path class="st6" d="M37.4,24.2h4.4c0-0.3,0-0.5,0-0.8c0-0.3,0-0.6,0-0.8h-4.4c0,0.3,0,0.5,0,0.8C37.4,23.6,37.4,23.9,37.4,24.2
					z"/>
				<path class="st6" d="M13.9,22.5H9.5c0,0.3,0,0.5,0,0.8c0,0.3,0,0.6,0,0.8h4.4c0-0.3,0-0.5,0-0.8C13.9,23.1,13.9,22.8,13.9,22.5z
					"/>
				<path class="st6" d="M15.5,22.5h-1.6c0,0.3,0,0.5,0,0.8c0,0.3,0,0.6,0,0.8h1.6c0-0.3,0-0.5,0-0.8C15.5,23.1,15.5,22.8,15.5,22.5
					z"/>
				<path class="st6" d="M35.7,23.3c0,0.3,0,0.6,0,0.8h1.6c0-0.3,0-0.5,0-0.8c0-0.3,0-0.6,0-0.8h-1.6C35.7,22.8,35.7,23.1,35.7,23.3
					z"/>
				<rect x="24.8" y="22.5" class="st6" width="1.6" height="1.6"/>
			</g>
			<circle class="st7" cx="25.6" cy="23.3" r="16.2"/>
		</g>
	</g>
	<g class="st0">
		<g class="st4">
			<path class="st6" d="M36.4,22.6h4.1c-0.1-2.1-0.6-4.1-1.5-5.9c-1.1-0.3-2.4-0.5-3.7-0.8C35.9,18,36.3,20.3,36.4,22.6z"/>
			<path class="st6" d="M26.2,22.6h8.6c-0.1-2.5-0.5-4.8-1.3-6.9c-2.3-0.3-4.7-0.5-7.4-0.5V22.6z"/>
			<path class="st6" d="M10.5,22.6h4.1c0.1-2.4,0.5-4.6,1.1-6.6c-1.3,0.2-2.5,0.5-3.7,0.8C11.1,18.5,10.6,20.5,10.5,22.6z"/>
			<path class="st6" d="M26.2,13.7c2.3,0,4.6,0.2,6.7,0.4c-1.4-2.9-3.4-5-5.7-5.7c-0.3,0-0.6-0.1-1-0.1V13.7z"/>
			<path class="st6" d="M24.7,22.6v-7.4c-2.6,0-5.1,0.2-7.4,0.5c-0.7,2-1.2,4.4-1.3,6.9H24.7z"/>
			<path class="st6" d="M26.2,33v5.3c0.3,0,0.7,0,1-0.1c2.3-0.7,4.3-2.8,5.7-5.7C30.8,32.9,28.6,33,26.2,33z"/>
			<path class="st6" d="M24.7,13.7V8.4c-0.3,0-0.7,0-1,0.1c-2.3,0.7-4.3,2.8-5.7,5.7C20.1,13.9,22.4,13.8,24.7,13.7z"/>
			<path class="st6" d="M24.7,33c-2.3,0-4.6-0.2-6.7-0.4c1.4,2.9,3.4,5,5.7,5.7c0.3,0,0.6,0.1,1,0.1V33z"/>
			<path class="st6" d="M16.3,14.4C17,12.6,18,11,19.2,9.8c-2.5,1.2-4.6,3-6.1,5.2C14.1,14.7,15.1,14.5,16.3,14.4z"/>
			<path class="st6" d="M34.7,14.4c1.1,0.2,2.2,0.4,3.2,0.6c-1.5-2.2-3.6-4.1-6.1-5.2C32.9,11,33.9,12.6,34.7,14.4z"/>
			<path class="st6" d="M34.7,32.4c-0.8,1.8-1.7,3.4-2.9,4.6c2.5-1.2,4.6-3,6.1-5.2C36.9,32,35.8,32.2,34.7,32.4z"/>
			<path class="st6" d="M16.3,32.4c-1.1-0.2-2.2-0.4-3.2-0.6c1.5,2.2,3.6,4.1,6.1,5.2C18,35.8,17,34.2,16.3,32.4z"/>
			<path class="st6" d="M26.2,24.2v7.4c2.6,0,5.1-0.2,7.4-0.5c0.7-2,1.2-4.4,1.3-6.9H26.2z"/>
			<path class="st6" d="M24.7,24.2h-8.6c0.1,2.5,0.5,4.8,1.3,6.9c2.3,0.3,4.7,0.5,7.4,0.5V24.2z"/>
			<path class="st6" d="M14.6,24.2h-4.1c0.1,2.1,0.6,4.1,1.5,5.9c1.1,0.3,2.4,0.5,3.7,0.8C15,28.8,14.6,26.5,14.6,24.2z"/>
			<path class="st6" d="M40.5,24.2h-4.1c-0.1,2.4-0.5,4.6-1.1,6.6c1.3-0.2,2.5-0.5,3.7-0.8C39.8,28.2,40.4,26.2,40.5,24.2z"/>
		</g>
	</g>
	<g class="st0">
		<ellipse class="st1" cx="25.9" cy="51" rx="10.7" ry="0.6"/>
		<circle class="st3" cx="25.6" cy="23.3" r="16.7"/>
		<line class="st8" x1="45.7" y1="23.4" x2="36.2" y2="50.4"/>
		<line class="st8" x1="5.9" y1="23.4" x2="15.6" y2="50.4"/>
		<line class="st8" x1="5.9" y1="23.4" x2="8.7" y2="23.4"/>
		<line class="st8" x1="43" y1="23.4" x2="45.7" y2="23.4"/>
		<line class="st8" x1="47.1" y1="32.1" x2="47.1" y2="23.8"/>
		<line class="st9" x1="49.1" y1="32" x2="49.1" y2="30.8"/>
		<line class="st8" x1="28.6" y1="41.8" x2="33" y2="41.8"/>
	</g>
	<g class="st0">
		<ellipse class="st10" cx="25.6" cy="23.3" rx="16.1" ry="15.9"/>
		<ellipse class="st10" cx="25.6" cy="23.3" rx="4.6" ry="15.9"/>
		<ellipse class="st10" cx="25.6" cy="23.3" rx="15.9" ry="4.6"/>
		<ellipse class="st10" cx="25.6" cy="23.3" rx="15.9" ry="11"/>
		<ellipse class="st10" cx="25.6" cy="23.3" rx="11" ry="15.9"/>
	</g>
	<g>
		<g>
			<path class="st6" d="M13.8,50v0.5c2.1,0.8,20.1,0.8,22.1,0V50C32.2,50.6,17.5,50.6,13.8,50z"/>
			<path class="st6" d="M49.7,28.5c-0.5,0-1,0.3-1.2,0.7L46.3,29l0.3-5.9L41.8,23l0,0.6l0,0c0,0.5,0,0.9,0,1.4
				c-0.3,10.4-8.1,18.6-17.3,18.3c-4.5-0.1-8.6-2.2-11.6-5.8C9.8,33.7,8.2,29,8.4,23.9c0-0.6,0.1-1.2,0.1-1.8l-1-0.1
				c0,0.1,0,0.1,0,0.2l-0.3,0c-0.2-0.4-0.6-0.7-1.2-0.7c-0.7,0-1.3,0.6-1.3,1.3c0,0.7,0.6,1.3,1.3,1.3c0.5,0,1-0.3,1.2-0.7l0.2,0
				c0,0.2,0,0.3,0,0.5C7.2,29.2,8.9,34.2,12.1,38c3.2,3.8,7.5,6,12.2,6.2v0.3c0,3.3-11,2-11,3.1c0,0,0,0,0,0h0v1c0,0.5,0.3,0.8,4,1
				c2.1,0.1,4.9,0.2,7.9,0.2c3,0,5.8-0.1,7.9-0.2c3.7-0.2,4-0.5,4-1v-1h0c0,0,0,0,0,0c0-1.1-11,0.3-11-3.1v-0.3
				c9.1-0.6,16.5-8.9,16.8-19.2c0-0.3,0-0.7,0-1l2.3,0.1L45,30.1l3.5,0.1c0.2,0.4,0.6,0.8,1.1,0.8c0.7,0,1.3-0.5,1.4-1.2
				C51,29.1,50.5,28.5,49.7,28.5z"/>
			<path class="st6" d="M22.8,39.2l0,3l4.2,0l0-2.9c7.8-0.8,14-7.4,14.2-15.6C41.4,14.7,34.5,7.2,25.7,7C16.9,6.7,9.6,13.7,9.3,22.7
				c-0.1,4.3,1.4,8.4,4.3,11.6C16.1,36.9,19.3,38.6,22.8,39.2z M15.5,32.5c-2.1-2.3-3.3-5.2-3.6-8.2c0.7,0.2,1.6,0.5,2.8,0.7
				c0.2,0,0.4,0.1,0.6,0.1c0.2,3.2,1,6.2,2.5,8.7c0.3,0.5,0.6,0.9,0.9,1.3C17.5,34.4,16.4,33.6,15.5,32.5z M22,9.9
				c0.5-0.1,1.1-0.2,1.7-0.3c-1.1,2.4-1.8,6.7-2.1,10.7c-2,0-3.7,0.1-5,0.2C17.2,15.7,19.3,11.8,22,9.9z M31.8,13.1
				c1.3,2.2,2.1,5,2.3,8c-1.5-0.2-3.3-0.4-5.1-0.6c0-3-0.3-5.7-0.7-7.9c-0.2-1.2-0.5-2.1-0.8-2.9c0.6,0.1,1.2,0.3,1.8,0.4
				C30.2,10.9,31.1,11.9,31.8,13.1z M38.6,23.2c0,0.1,0,0.3,0,0.4c0,0.1,0,0.3,0,0.4c-0.7,0.2-1.9,0.5-3.5,0.7
				c0-0.4,0.1-0.8,0.1-1.2c0-0.4,0-0.8,0-1.2C36.7,22.6,37.9,22.9,38.6,23.2z M34.1,23.5c0,0.5,0,0.9-0.1,1.4
				c-1.4,0.1-3.2,0.2-5.2,0.2c0-0.6,0.1-1.2,0.1-1.8c0-0.6,0-1.2,0-1.8c2,0.1,3.7,0.3,5.2,0.6C34.1,22.5,34.1,23,34.1,23.5z
				 M28.5,36.4c-0.6,0.1-1.2,0.3-1.8,0.3c1.1-2.4,1.8-6.8,2.1-10.7c2.1,0,3.8-0.1,5.2-0.2C33.3,30.6,31.2,34.6,28.5,36.4z
				 M18.7,33.3c-1.3-2.2-2.1-5-2.3-8c1.5,0.2,3.2,0.4,5,0.5c0,3,0.3,5.7,0.7,7.9c0.2,1.2,0.5,2.1,0.8,2.9c-0.6-0.1-1.1-0.2-1.7-0.4
				C20.2,35.5,19.4,34.5,18.7,33.3z M22.4,23.1c0-0.6,0-1.2,0.1-1.8c0.9,0,1.8,0,2.8,0c0.9,0,1.8,0.1,2.6,0.1c0,0.6,0,1.2,0,1.8
				c0,0.6,0,1.2-0.1,1.8c-0.9,0-1.8,0-2.7,0c-1,0-1.9-0.1-2.8-0.1C22.4,24.3,22.4,23.7,22.4,23.1z M25.2,9.5c0.1,0,0.3,0,0.4,0
				c0.2,0,0.5,0,0.7,0c0.3,0.6,0.7,1.6,0.9,3.2c0.4,2.1,0.6,4.8,0.6,7.6c-0.9-0.1-1.7-0.1-2.6-0.1c-0.9,0-1.8,0-2.7,0
				C23,14.6,24,11,24.8,9.5C25,9.5,25.1,9.5,25.2,9.5z M25.1,26c0.9,0,1.8,0,2.6,0c-0.4,5.7-1.4,9.3-2.3,10.7c-0.2,0-0.5,0-0.7,0
				c-0.3,0-0.5,0-0.8-0.1c-0.3-0.6-0.6-1.6-0.9-3.2c-0.4-2.1-0.6-4.8-0.6-7.7C23.3,26,24.2,26,25.1,26z M21.5,21.3
				c0,0.6-0.1,1.2-0.1,1.8c0,0.6,0,1.2,0,1.8c-2-0.1-3.6-0.3-5.1-0.6c0-0.4,0-0.9,0-1.4c0-0.5,0-0.9,0.1-1.4
				C17.8,21.4,19.5,21.3,21.5,21.3z M15.3,22.9c0,0.4,0,0.8,0,1.2c-1.6-0.3-2.8-0.6-3.4-0.9c0-0.1,0-0.3,0-0.4c0-0.1,0-0.3,0-0.4
				c0.7-0.2,1.9-0.5,3.5-0.7C15.3,22.1,15.3,22.5,15.3,22.9z M31,35.5c2-2.3,3.5-5.7,3.9-9.7c1.6-0.2,2.7-0.4,3.5-0.7
				C37.8,29.7,35,33.6,31,35.5z M38.6,22.1c-0.7-0.2-1.6-0.5-2.8-0.7c-0.2,0-0.4-0.1-0.6-0.1c-0.2-3.2-1-6.2-2.5-8.7
				c-0.3-0.5-0.6-0.9-0.9-1.3C35.6,13.4,38.2,17.4,38.6,22.1z M19.4,10.9c-2,2.3-3.5,5.7-4,9.7c-1.6,0.2-2.7,0.4-3.5,0.7
				C12.6,16.6,15.5,12.8,19.4,10.9z"/>
			<rect x="26.9" y="40.4" class="st6" width="1.9" height="0.8"/>
		</g>
	</g>
	<g class="st0">
		<rect x="22.9" y="40.4" class="st1" width="5.8" height="3.7"/>
		<circle class="st1" cx="25.8" cy="46.7" r="2.1"/>
	</g>
	<g class="st0">
		<g class="st4">
			<circle class="st6" cx="23.4" cy="36.5" r="2.1"/>
			<circle class="st6" cx="27.8" cy="36.5" r="2.1"/>
		</g>
		<circle class="st1" cx="25.6" cy="32.1" r="2.1"/>
		<circle class="st1" cx="25.6" cy="27.4" r="2.1"/>
		<circle class="st1" cx="29.9" cy="31" r="2.1"/>
		<circle class="st1" cx="21.3" cy="31" r="2.1"/>
		<circle class="st1" cx="17.6" cy="28.3" r="2.1"/>
		<g class="st4">
			<circle class="st6" cx="12.9" cy="28.3" r="2.1"/>
			<circle class="st6" cx="38.2" cy="28.3" r="2.1"/>
		</g>
		<circle class="st1" cx="33.6" cy="28.3" r="2.1"/>
		<g class="st4">
			<circle class="st6" cx="15.5" cy="32.3" r="2.1"/>
			<path class="st6" d="M37.7,32.3c0,1.1-0.9,2.1-2.1,2.1c-1.1,0-2.1-0.9-2.1-2.1c0-1.1,0.9-2.1,2.1-2.1
				C36.8,30.2,37.7,31.2,37.7,32.3z"/>
		</g>
		<g class="st4">
			<circle class="st6" cx="32" cy="35" r="2.1"/>
			<circle class="st6" cx="19.2" cy="35" r="2.1"/>
		</g>
	</g>
	<g class="st0">
		<g class="st4">
			<path class="st6" d="M36.4,22.6h4.1c-0.1-2.1-0.6-4.1-1.5-5.9c-1.1-0.3-2.4-0.5-3.7-0.8C35.9,18,36.3,20.3,36.4,22.6z"/>
			<path class="st6" d="M33.6,15.8c-2.3-0.3-4.7-0.5-7.4-0.5v7.4h8.6C34.8,20.1,34.3,17.8,33.6,15.8z"/>
			<path class="st6" d="M15.7,16c-1.3,0.2-2.5,0.5-3.7,0.8c-0.9,1.8-1.4,3.8-1.5,5.9h4.1C14.6,20.3,15,18,15.7,16z"/>
			<path class="st6" d="M27.2,8.5c-0.3,0-0.6-0.1-1-0.1v5.3c2.3,0,4.6,0.2,6.7,0.4C31.5,11.2,29.5,9.2,27.2,8.5z"/>
			<path class="st6" d="M16.1,22.6h8.6v-7.4c-2.6,0-5.1,0.2-7.4,0.5C16.6,17.8,16.2,20.1,16.1,22.6z"/>
			<path class="st6" d="M32.9,32.6c-2.1,0.2-4.4,0.4-6.7,0.4v5.3c0.3,0,0.7,0,1-0.1C29.5,37.6,31.5,35.5,32.9,32.6z"/>
			<path class="st6" d="M24.7,13.7V8.4c-0.3,0-0.7,0-1,0.1c-2.3,0.7-4.3,2.8-5.7,5.7C20.1,13.9,22.4,13.8,24.7,13.7z"/>
			<path class="st6" d="M23.7,38.3c0.3,0,0.6,0.1,1,0.1V33c-2.3,0-4.6-0.2-6.7-0.4C19.4,35.5,21.4,37.6,23.7,38.3z"/>
			<path class="st6" d="M19.2,9.8c-2.5,1.2-4.6,3-6.1,5.2c1-0.2,2.1-0.4,3.2-0.6C17,12.6,18,11,19.2,9.8z"/>
			<path class="st6" d="M37.9,15c-1.5-2.2-3.6-4.1-6.1-5.2c1.1,1.2,2.1,2.8,2.9,4.6C35.8,14.5,36.9,14.7,37.9,15z"/>
			<path class="st6" d="M31.8,37c2.5-1.2,4.6-3,6.1-5.2c-1,0.2-2.1,0.4-3.2,0.6C33.9,34.2,32.9,35.8,31.8,37z"/>
			<path class="st6" d="M19.2,37c-1.1-1.2-2.1-2.8-2.9-4.6c-1.1-0.2-2.2-0.4-3.2-0.6C14.5,34.1,16.7,35.9,19.2,37z"/>
			<path class="st6" d="M34.9,24.2h-8.6v7.4c2.6,0,5.1-0.2,7.4-0.5C34.3,29,34.8,26.6,34.9,24.2z"/>
			<path class="st6" d="M17.3,31c2.3,0.3,4.7,0.5,7.4,0.5v-7.4h-8.6C16.2,26.6,16.6,29,17.3,31z"/>
			<path class="st6" d="M14.6,24.2h-4.1c0.1,2.1,0.6,4.1,1.5,5.9c1.1,0.3,2.4,0.5,3.7,0.8C15,28.8,14.6,26.5,14.6,24.2z"/>
			<path class="st6" d="M35.3,30.8c1.3-0.2,2.5-0.5,3.7-0.8c0.9-1.8,1.4-3.8,1.5-5.9h-4.1C36.3,26.5,35.9,28.8,35.3,30.8z"/>
			<path class="st6" d="M49.1,29c-0.5,0-0.9,0.2-1.2,0.5v-5.7c0-0.4-0.3-0.8-0.8-0.8c-0.2,0-0.5,0.1-0.6,0.3c0-0.4-0.4-0.7-0.8-0.7
				h-2.6C42.7,13.3,35,5.9,25.6,5.9S8.5,13.3,8.2,22.6H5.9c-0.2,0-0.4,0.1-0.6,0.3c-0.2,0.2-0.3,0.5-0.2,0.8l9.7,27
				c0.1,0.2,0.2,0.3,0.4,0.4c0,0,0,0,0.1,0c0,0,0.1,0,0.1,0c1,0.3,5.3,0.5,10.5,0.5c5.2,0,9.5-0.2,10.5-0.5c0.1,0,0.1,0,0.2-0.1
				c0,0,0,0,0,0c0.2-0.1,0.3-0.2,0.4-0.4L46.3,24v8.1c0,0.4,0.3,0.8,0.8,0.8c0.1,0,0.3,0,0.4-0.1c0.3,0.6,0.9,1,1.6,1
				c1,0,1.8-0.8,1.8-1.8v-1.2C50.9,29.8,50.1,29,49.1,29z M25.6,7.4c8.8,0,15.9,7.2,15.9,15.9s-7.2,15.9-15.9,15.9
				S9.7,32.1,9.7,23.3C9.7,14.5,16.8,7.4,25.6,7.4z M35.3,50.7c-1.8-0.2-5.3-0.3-9.4-0.3c-4,0-7.5,0.1-9.4,0.3L6.9,24.2h1.2
				c0.4,8.3,6.6,15.1,14.7,16.4v3.5h5.8v-1.5H33c0.4,0,0.8-0.3,0.8-0.8c0-0.4-0.3-0.8-0.8-0.8h-4.4v-0.5c7.9-1.4,14-8.1,14.4-16.4
				h1.6L35.3,50.7z"/>
			<circle class="st6" cx="25.8" cy="46.7" r="2.1"/>
		</g>
	</g>
	<g class="st0">
		<g class="st4">
			<path class="st6" d="M49.1,28.3c-0.5,0-0.9,0.2-1.2,0.5v-5c0.1-0.1,0.2-0.3,0.2-0.5c0-0.4-0.3-0.8-0.8-0.8h-4.2
				C42.7,13.3,35,5.9,25.6,5.9S8.5,13.3,8.2,22.6H5.9c-0.4,0-0.8,0.3-0.8,0.8c0,0,0,0,0,0c0,0.1,0,0.2,0,0.3l9.7,27
				c0.1,0.2,0.2,0.3,0.4,0.4c0,0,0,0,0.1,0c0,0,0.1,0,0.1,0c1,0.3,5.3,0.5,10.5,0.5c5.2,0,9.5-0.2,10.5-0.5c0.1,0,0.1,0,0.2-0.1
				c0,0,0,0,0,0c0.2-0.1,0.3-0.2,0.4-0.4l9.3-26.5h0v8c0,0.4,0.3,0.8,0.8,0.8c0.1,0,0.2,0,0.2,0c0.1,0.9,0.9,1.5,1.8,1.5
				c1,0,1.8-0.8,1.8-1.8v-2.5C50.9,29.1,50.1,28.3,49.1,28.3z M41.2,20.6c-1-2.7-3.3-5-6.5-6.5c-1.3-2.7-3.2-4.7-5.3-5.9
				C35.5,9.7,40.1,14.5,41.2,20.6z M20.8,24.2c0,1.1,0.1,2.2,0.2,3.3c-2.2-0.2-4.2-0.5-5.8-0.9c-0.1-0.8-0.2-1.5-0.2-2.3L20.8,24.2
				L20.8,24.2z M14.9,22.6c0-0.8,0.1-1.6,0.2-2.4c1.6-0.4,3.6-0.8,5.8-0.9c-0.1,1.1-0.1,2.2-0.2,3.4H14.9z M21,27.9
				c0.2,2.1,0.5,4.1,0.9,5.9c-1.9-0.3-3.6-0.8-5.1-1.6c-0.7-1.6-1.3-3.3-1.6-5.2C16.9,27.5,18.9,27.8,21,27.9z M21.3,22.6
				c0-1.2,0.1-2.3,0.1-3.4c1.3-0.1,2.7-0.2,4.1-0.2c1.5,0,2.8,0.1,4.1,0.2c0.1,1.1,0.1,2.2,0.1,3.4H21.3z M29.9,24.2
				c0,1.2-0.1,2.3-0.1,3.3c-1.3,0.1-2.7,0.2-4.1,0.2c-1.5,0-2.8-0.1-4.1-0.2c-0.1-1.1-0.1-2.2-0.1-3.3L29.9,24.2L29.9,24.2z
				 M21.5,28c1.3,0.1,2.7,0.2,4.1,0.2c1.4,0,2.8-0.1,4.1-0.2c-0.2,2.3-0.5,4.3-1,5.9c-1,0.1-2.1,0.2-3.1,0.2s-2.1-0.1-3.1-0.2
				C22,32.3,21.7,30.3,21.5,28z M30.2,27.9c2.1-0.2,4.1-0.5,5.8-0.9c-0.3,1.9-0.9,3.7-1.6,5.2c-1.5,0.7-3.3,1.3-5.1,1.6
				C29.7,32.1,30,30.1,30.2,27.9z M30.4,24.2h5.9c0,0.8-0.1,1.6-0.2,2.3c-1.6,0.4-3.6,0.8-5.8,0.9C30.3,26.4,30.4,25.3,30.4,24.2z
				 M30.2,19.2c2.2,0.2,4.2,0.5,5.8,0.9c0.1,0.8,0.2,1.6,0.2,2.4h-5.9C30.4,21.5,30.3,20.3,30.2,19.2z M36.5,26.9
				c2.1-0.6,3.7-1.3,4.5-2.2c-0.5,2.9-2.8,5.4-6,7.2C35.8,30.4,36.3,28.7,36.5,26.9z M36.8,24.2h4.1c-0.6,0.8-2.1,1.6-4.3,2.2
				C36.7,25.6,36.8,24.9,36.8,24.2z M36.6,20.3c2.3,0.6,3.8,1.5,4.3,2.3h-4.2C36.8,21.8,36.7,21.1,36.6,20.3z M36.5,19.8
				c-0.3-1.8-0.8-3.5-1.4-5c3.2,1.7,5.4,4.2,6,7.2C40.2,21.1,38.6,20.3,36.5,19.8z M36,19.6c-1.7-0.4-3.7-0.7-5.8-0.9
				c-0.2-2.1-0.5-4.1-0.9-5.9c1.9,0.3,3.6,0.8,5.1,1.6C35.1,16,35.7,17.7,36,19.6z M29.7,18.7c-1.3-0.1-2.7-0.2-4.1-0.2
				c-1.4,0-2.8,0.1-4.1,0.2c0.2-2.3,0.5-4.3,1-5.9c1-0.1,2.1-0.2,3.1-0.2c1.1,0,2.1,0.1,3.1,0.2C29.2,14.4,29.5,16.4,29.7,18.7z
				 M21,18.7c-2.1,0.2-4.1,0.5-5.8,0.9c0.3-1.9,0.9-3.7,1.6-5.2c1.5-0.7,3.3-1.3,5.1-1.6C21.5,14.6,21.2,16.6,21,18.7z M14.6,19.8
				c-2.1,0.6-3.7,1.3-4.5,2.2c0.5-2.9,2.8-5.4,6-7.2C15.4,16.3,14.9,18,14.6,19.8z M14.4,22.6h-4.2c0.6-0.8,2.1-1.7,4.3-2.3
				C14.5,21.1,14.4,21.8,14.4,22.6z M14.6,26.3c-2.2-0.6-3.7-1.4-4.3-2.2h4.1C14.4,24.9,14.5,25.6,14.6,26.3z M14.6,26.9
				c0.3,1.8,0.8,3.5,1.4,5c-3.2-1.7-5.4-4.2-6-7.2C11,25.6,12.6,26.3,14.6,26.9z M16.4,32.6c1.3,2.7,3.2,4.7,5.3,5.9
				C15.7,37,11,32.2,9.9,26.1C10.9,28.8,13.3,31.1,16.4,32.6z M17.2,33c1.5,0.6,3.1,1.1,4.9,1.4c0.6,2,1.3,3.6,2.1,4.5
				C21.3,38.3,18.9,36.1,17.2,33z M22.6,34.4c1,0.1,2,0.2,3,0.2c1,0,2-0.1,3-0.2c-0.8,2.9-1.9,4.5-3,4.5S23.4,37.3,22.6,34.4z
				 M29.1,34.4c1.8-0.3,3.4-0.8,4.9-1.4c-1.7,3.1-4.2,5.3-7,5.8C27.9,38,28.6,36.4,29.1,34.4z M34.8,32.6c3.2-1.5,5.5-3.8,6.5-6.5
				c-1.1,6.1-5.8,10.9-11.8,12.4C31.6,37.4,33.4,35.3,34.8,32.6z M34,13.7c-1.5-0.6-3.1-1.1-4.9-1.4c-0.6-2-1.3-3.6-2.1-4.5
				C29.8,8.4,32.3,10.6,34,13.7z M25.6,7.7c1.1,0,2.2,1.6,3,4.5c-1-0.1-2-0.2-3-0.2c-1,0-2,0.1-3,0.2C23.4,9.4,24.5,7.7,25.6,7.7z
				 M22.1,12.3c-1.8,0.3-3.4,0.8-4.9,1.4c1.7-3.1,4.2-5.3,7-5.8C23.3,8.7,22.6,10.3,22.1,12.3z M21.7,8.2c-2.2,1.1-4,3.2-5.3,5.9
				c-3.2,1.5-5.5,3.8-6.5,6.5C11,14.5,15.7,9.7,21.7,8.2z M35.3,50.7c-1.8-0.2-5.3-0.3-9.4-0.3c-4,0-7.5,0.1-9.4,0.3L6.9,24.2h1.2
				c0.4,8.3,6.6,15.1,14.7,16.4v3.5h5.8v-1.5H33c0.4,0,0.8-0.3,0.8-0.8c0-0.4-0.3-0.8-0.8-0.8h-4.4v-0.5c7.9-1.4,14-8.1,14.4-16.4
				h1.6L35.3,50.7z"/>
			<circle class="st6" cx="25.8" cy="46.7" r="2.1"/>
		</g>
	</g>
	<g class="st0">
		<g class="st4">
			<path class="st6" d="M5.6,22.6c-0.4,0.1-0.6,0.7-0.5,1.1l9.7,27c0.1,0.2,0.2,0.3,0.4,0.4c0,0,0,0,0.1,0c0,0,0.1,0,0.1,0
				c1,0.3,5.3,0.5,10.5,0.5c5.2,0,9.5-0.2,10.5-0.5c0.1,0,0.1,0,0.2-0.1c0,0,0,0,0,0c0.2-0.1,0.3-0.2,0.4-0.4l9.3-26.5h0v8
				c0,0.4,0.3,0.8,0.8,0.8c0.1,0,0.2,0,0.2,0c0.1,0.9,0.9,1.5,1.8,1.5c1,0,1.8-0.8,1.8-1.8v-2.5c0-1-0.8-1.8-1.8-1.8
				c-0.5,0-0.9,0.2-1.2,0.5v-5c0.1-0.1,0.2-0.3,0.2-0.5c0-0.4-0.3-0.8-0.8-0.8h-4.2C42.7,13.3,35,5.9,25.6,5.9S8.5,13.3,8.2,22.6
				H5.6z M25.6,7.4c8.6,0,15.6,6.8,15.9,15.2h-0.7C40.5,14.5,33.8,8,25.6,8s-14.9,6.5-15.3,14.6H9.7C10.1,14.2,17.1,7.4,25.6,7.4z
				 M16.4,32.3c0.7,1.6,1.5,3,2.4,4.1c-2.1-1.1-3.9-2.7-5.3-4.6C14.5,32,15.4,32.2,16.4,32.3z M12.5,30c-0.9-1.8-1.5-3.8-1.6-5.9
				h3.8c0.1,2.3,0.5,4.6,1.1,6.6C14.6,30.5,13.5,30.3,12.5,30z M18.2,32.6c2.1,0.2,4.4,0.4,6.7,0.4v5.1c-0.7,0-1.3-0.1-2-0.2
				C21,36.9,19.3,35,18.2,32.6z M17.5,31c-0.7-2-1.2-4.3-1.3-6.8h8.6v7.3C22.2,31.4,19.8,31.2,17.5,31z M16.2,22.6
				c0.1-2.5,0.5-4.8,1.3-6.9c2.3-0.3,4.7-0.5,7.4-0.5v7.4H16.2z M18.2,14.1c1.2-2.5,2.8-4.3,4.7-5.3c0.7-0.1,1.3-0.2,2-0.2v5.1
				C22.5,13.7,20.3,13.8,18.2,14.1z M16.4,14.3c-1,0.1-1.9,0.3-2.9,0.5c1.4-1.9,3.2-3.5,5.3-4.6C17.9,11.4,17.1,12.7,16.4,14.3z
				 M15.8,16c-0.6,2-1,4.2-1.1,6.6h-3.8c0.1-2.1,0.7-4.1,1.6-5.9C13.5,16.4,14.6,16.1,15.8,16z M25.6,38.6c8.1,0,14.8-6.4,15.3-14.5
				h0.7c-0.4,8.4-7.4,15.1-15.9,15.1S10.1,32.6,9.7,24.2h0.7C10.8,32.2,17.5,38.6,25.6,38.6z M35.4,30.7c0.6-2,1-4.2,1.1-6.6h3.8
				c-0.1,2.1-0.7,4.1-1.6,5.9C37.7,30.3,36.6,30.5,35.4,30.7z M37.7,31.8c-1.4,1.9-3.2,3.5-5.3,4.6c1-1.2,1.8-2.5,2.4-4.1
				C35.8,32.2,36.8,32,37.7,31.8z M36.5,22.6c-0.1-2.4-0.5-4.6-1.1-6.6c1.2,0.2,2.3,0.4,3.4,0.7c0.9,1.8,1.5,3.8,1.6,5.9H36.5z
				 M34.8,14.3c-0.7-1.6-1.5-3-2.4-4.1c2.1,1.1,3.9,2.7,5.3,4.6C36.8,14.6,35.8,14.5,34.8,14.3z M33.1,14.1
				c-2.1-0.2-4.4-0.4-6.7-0.4V8.6c0.7,0,1.3,0.1,2,0.2C30.3,9.8,31.9,11.6,33.1,14.1z M33.7,15.7c0.7,2,1.2,4.4,1.3,6.9h-8.6v-7.4
				C29,15.2,31.5,15.4,33.7,15.7z M35,24.2c-0.1,2.5-0.5,4.8-1.3,6.8c-2.3,0.3-4.7,0.5-7.4,0.5v-7.3C26.4,24.2,35,24.2,35,24.2z
				 M33.1,32.6c-1.2,2.5-2.8,4.3-4.7,5.3c-0.7,0.1-1.3,0.2-2,0.2V33C28.7,33,31,32.8,33.1,32.6z M35.5,50.1
				c-0.1,0.2-0.1,0.6-0.2,0.5c-1.8-0.2-5.3-0.3-9.4-0.3c-4,0-7.5,0.1-9.4,0.3c-0.1,0-0.2-0.4-0.2-0.6l-9.4-26h1.2
				c0.4,8.3,6.6,15.1,14.7,16.4v3.5h5.8v-1.5H33c0.4,0,0.8-0.3,0.8-0.8c0-0.4-0.3-0.8-0.8-0.8h-4.4v-0.5c7.9-1.4,14-8.1,14.4-16.4
				h1.6L35.5,50.1z"/>
			<circle class="st6" cx="26" cy="47.4" r="2.5"/>
		</g>
	</g>
</g>
<g id="SvgjsG1747" transform="matrix(3.884399652481079,0,0,3.884399652481079,116.73710431078221,-3.3840901331765423)">
	<path class="st6" d="M-14.3,10.6v-7h1.6v5.5h3.2v1.5C-9.4,10.6-14.3,10.6-14.3,10.6z M-5.2,10.8c-2,0-3.7-1.6-3.7-3.6
		c0-2.1,1.7-3.6,3.7-3.6c2.1,0,3.7,1.6,3.7,3.6C-1.5,9.2-3.1,10.8-5.2,10.8z M-5.2,9.3c1.2,0,2.1-0.9,2.1-2.2C-3.1,5.9-4,5-5.2,5
		s-2.1,1-2.1,2.2S-6.4,9.3-5.2,9.3z M2.6,10.6H1V5.1H-1V3.6h5.8v1.5H2.6V10.6z M8.7,10.6H7.1V5.1H5V3.6h5.8v1.5H8.7V10.6z
		 M14.9,10.8c-2,0-3.7-1.6-3.7-3.6c0-2.1,1.7-3.6,3.7-3.6c2.1,0,3.7,1.6,3.7,3.6C18.6,9.2,17,10.8,14.9,10.8z M14.9,9.3
		c1.2,0,2.1-0.9,2.1-2.2C17,5.9,16.1,5,14.9,5s-2.1,1-2.1,2.2S13.7,9.3,14.9,9.3z"/>
</g>
</svg>
